<svg width="35" height="250" viewBox="0 0 35 250" fill="none" xmlns="http://www.w3.org/2000/svg">
<g opacity="0.6">
<path d="M23.332 36.5164V83.2489H13.4251V36.5164C13.4251 26.1229 12.7246 19.3374 11.3497 16.2105C9.95199 13.1279 7.87332 11.5391 5.10069 11.5391H1.5822C0.703383 11.5391 0.00292969 10.1719 0.00292969 8.45655V3.08259C0.00292969 1.41154 0.703383 0 1.5822 0H9.25153C13.7429 0 17.1933 2.60153 19.6546 7.79826C22.1127 13.0013 23.332 22.6036 23.332 36.5164Z" fill="#4BBBE5"/>
<path d="M35.0001 121.962V129.007C35.0001 130.596 34.4132 132.001 33.6252 132.134C30.4666 132.748 28.028 135.393 26.2931 140.147C24.3312 145.565 23.3356 152.61 23.3356 161.377V166.618H13.4287V163.225C13.4287 152.61 14.648 144.508 17.1061 138.868C19.5415 133.273 23.0178 128.912 27.4865 125.785V125.171C23.0178 122.044 19.5447 117.638 17.1061 112.043C14.648 106.403 13.4287 98.3011 13.4287 87.6861V83.2363H23.3356V89.5787C23.3356 98.3011 24.3279 105.39 26.2931 110.809C28.0313 115.524 30.4666 118.208 33.6252 118.778C34.4132 118.923 35.0001 120.379 35.0001 121.962Z" fill="#ED3837"/>
<path d="M23.3323 166.624V213.484C23.3323 227.624 22.113 237.265 19.6549 242.335C17.1968 247.443 13.7432 250 9.25185 250H1.57927C0.700454 250 0 248.588 0 246.917V241.543C0 239.828 0.700454 238.461 1.57927 238.461H5.09776C7.87364 238.461 9.94906 236.878 11.3467 233.79C12.7217 230.663 13.4221 223.877 13.4221 213.484V166.624H23.3323Z" fill="#489E32"/>
</g>
</svg>
