<svg width="30" height="250" viewBox="0 0 30 250" fill="none" xmlns="http://www.w3.org/2000/svg">
<g opacity="0.6">
<path d="M18.9362 23.6112C18.6471 27.0041 18.4914 31.2769 18.4914 36.5182V63.4716H9.99902V36.5119C9.99902 31.7137 10.1158 27.3522 10.366 23.6048H18.9362V23.6112Z" fill="#0035BA"/>
<path d="M30 3.08275V8.45698C30 10.1724 29.3995 11.5397 28.6462 11.5397H25.6301C23.2505 11.5397 21.4714 13.1222 20.2733 16.2113C19.6923 17.7559 19.2476 20.2183 18.939 23.6112H10.3688C10.833 16.2999 11.7615 11.0143 13.1542 7.66572C15.2613 2.55735 18.2218 0 22.0691 0H28.6462C29.3995 0 30 1.41161 30 3.08275Z" fill="white"/>
<path d="M19.3615 229.87H10.6578C10.2131 225.376 9.99902 219.869 9.99902 213.488V189.13H18.4914V213.488C18.4914 220.666 18.7805 226.174 19.3615 229.87Z" fill="#0035BA"/>
<path d="M6.44088 124.209V124.823C10.2715 127.95 13.2487 132.356 15.3391 137.951C17.4462 143.591 18.4915 151.694 18.4915 162.309V189.136H9.99907V160.417C9.99907 151.694 9.14844 144.604 7.46386 139.186C5.97387 134.47 3.88621 131.786 1.17865 131.216C0.50037 131.083 0 129.634 0 128.045V120.999C0 119.417 0.50315 118.005 1.17865 117.872C3.88621 117.258 5.97665 114.612 7.46386 109.858C9.14566 104.44 9.99907 97.3945 9.99907 88.6274V63.478H18.4915V86.779C18.4915 97.3945 17.4462 105.497 15.3391 111.137C13.2487 116.72 10.2715 121.082 6.44088 124.209Z" fill="white"/>
<path d="M30 241.543V246.917C30 248.588 29.3996 250 28.6462 250H22.0692C18.2191 250 15.2613 247.398 13.1514 242.201C12.0089 239.384 11.1778 235.289 10.6552 229.87H19.3588C19.5895 231.497 19.9009 232.82 20.2678 233.789C21.4659 236.871 23.2478 238.46 25.6246 238.46H28.6407C29.3996 238.46 30 239.828 30 241.543Z" fill="white"/>
</g>
</svg>
